<mxfile host="Electron" agent="Mozilla/5.0 (Windows NT 10.0; Win64; x64) AppleWebKit/537.36 (KHTML, like Gecko) draw.io/26.1.1 Chrome/132.0.6834.210 Electron/34.3.3 Safari/537.36" version="26.1.1">
  <diagram name="PÃ¡gina-1" id="1bJzQX5N4FrPKbYJMu04">
    <mxGraphModel dx="683" dy="398" grid="1" gridSize="10" guides="1" tooltips="1" connect="1" arrows="1" fold="1" page="1" pageScale="1" pageWidth="827" pageHeight="1169" math="0" shadow="0">
      <root>
        <mxCell id="0" />
        <mxCell id="1" parent="0" />
        <mxCell id="cvoX3v_F4l1VIROdqlJI-8" style="edgeStyle=orthogonalEdgeStyle;rounded=0;orthogonalLoop=1;jettySize=auto;html=1;entryX=0;entryY=0.5;entryDx=0;entryDy=0;" parent="1" source="cvoX3v_F4l1VIROdqlJI-1" target="cvoX3v_F4l1VIROdqlJI-4" edge="1">
          <mxGeometry relative="1" as="geometry" />
        </mxCell>
        <mxCell id="cvoX3v_F4l1VIROdqlJI-10" value="HTTP&lt;div&gt;REQUEST&lt;/div&gt;" style="edgeLabel;html=1;align=center;verticalAlign=middle;resizable=0;points=[];" parent="cvoX3v_F4l1VIROdqlJI-8" vertex="1" connectable="0">
          <mxGeometry x="0.1543" y="-1" relative="1" as="geometry">
            <mxPoint x="-6" y="-21" as="offset" />
          </mxGeometry>
        </mxCell>
        <mxCell id="cvoX3v_F4l1VIROdqlJI-1" value="User" style="shape=umlActor;verticalLabelPosition=bottom;verticalAlign=top;html=1;outlineConnect=0;" parent="1" vertex="1">
          <mxGeometry x="150" y="330" width="30" height="60" as="geometry" />
        </mxCell>
        <mxCell id="cvoX3v_F4l1VIROdqlJI-4" value="Web Application" style="swimlane;whiteSpace=wrap;html=1;" parent="1" vertex="1">
          <mxGeometry x="280" y="280" width="200" height="160" as="geometry">
            <mxRectangle x="260" y="292.5" width="130" height="30" as="alternateBounds" />
          </mxGeometry>
        </mxCell>
        <mxCell id="cvoX3v_F4l1VIROdqlJI-21" style="edgeStyle=orthogonalEdgeStyle;rounded=0;orthogonalLoop=1;jettySize=auto;html=1;entryX=0;entryY=0.25;entryDx=0;entryDy=0;exitX=1;exitY=0.25;exitDx=0;exitDy=0;" parent="cvoX3v_F4l1VIROdqlJI-4" source="cvoX3v_F4l1VIROdqlJI-16" target="cvoX3v_F4l1VIROdqlJI-17" edge="1">
          <mxGeometry relative="1" as="geometry" />
        </mxCell>
        <mxCell id="cvoX3v_F4l1VIROdqlJI-16" value="Front-End" style="rounded=0;whiteSpace=wrap;html=1;" parent="cvoX3v_F4l1VIROdqlJI-4" vertex="1">
          <mxGeometry x="20" y="45" width="70" height="95" as="geometry" />
        </mxCell>
        <mxCell id="cvoX3v_F4l1VIROdqlJI-20" style="edgeStyle=orthogonalEdgeStyle;rounded=0;orthogonalLoop=1;jettySize=auto;html=1;entryX=1;entryY=0.75;entryDx=0;entryDy=0;exitX=0;exitY=0.75;exitDx=0;exitDy=0;" parent="cvoX3v_F4l1VIROdqlJI-4" source="cvoX3v_F4l1VIROdqlJI-17" target="cvoX3v_F4l1VIROdqlJI-16" edge="1">
          <mxGeometry relative="1" as="geometry" />
        </mxCell>
        <mxCell id="cvoX3v_F4l1VIROdqlJI-17" value="Back-End" style="rounded=0;whiteSpace=wrap;html=1;" parent="cvoX3v_F4l1VIROdqlJI-4" vertex="1">
          <mxGeometry x="110" y="45" width="70" height="95" as="geometry" />
        </mxCell>
        <mxCell id="cvoX3v_F4l1VIROdqlJI-26" value="JSON" style="shape=note;whiteSpace=wrap;html=1;backgroundOutline=1;darkOpacity=0.05;size=10;" parent="1" vertex="1">
          <mxGeometry x="490" y="410" width="40" height="30" as="geometry" />
        </mxCell>
        <mxCell id="h26YvSRn9PejJhWZv6wJ-13" style="edgeStyle=orthogonalEdgeStyle;rounded=0;orthogonalLoop=1;jettySize=auto;html=1;entryX=1;entryY=0.75;entryDx=0;entryDy=0;" edge="1" parent="1" source="cvoX3v_F4l1VIROdqlJI-28" target="cvoX3v_F4l1VIROdqlJI-17">
          <mxGeometry relative="1" as="geometry">
            <Array as="points">
              <mxPoint x="515" y="360" />
              <mxPoint x="515" y="396" />
            </Array>
          </mxGeometry>
        </mxCell>
        <mxCell id="h26YvSRn9PejJhWZv6wJ-15" value="RESPONSE" style="edgeLabel;html=1;align=center;verticalAlign=middle;resizable=0;points=[];" vertex="1" connectable="0" parent="h26YvSRn9PejJhWZv6wJ-13">
          <mxGeometry x="-0.084" y="-1" relative="1" as="geometry">
            <mxPoint x="6" y="8" as="offset" />
          </mxGeometry>
        </mxCell>
        <mxCell id="cvoX3v_F4l1VIROdqlJI-28" value="Station Data API" style="rounded=0;whiteSpace=wrap;html=1;" parent="1" vertex="1">
          <mxGeometry x="570" y="340" width="100" height="32.5" as="geometry" />
        </mxCell>
        <mxCell id="cvoX3v_F4l1VIROdqlJI-31" style="edgeStyle=orthogonalEdgeStyle;rounded=0;orthogonalLoop=1;jettySize=auto;html=1;entryX=0.5;entryY=1;entryDx=0;entryDy=0;" parent="1" source="cvoX3v_F4l1VIROdqlJI-29" target="cvoX3v_F4l1VIROdqlJI-28" edge="1">
          <mxGeometry relative="1" as="geometry" />
        </mxCell>
        <mxCell id="cvoX3v_F4l1VIROdqlJI-29" value="database.xlxs" style="shape=cylinder3;whiteSpace=wrap;html=1;boundedLbl=1;backgroundOutline=1;size=4.857142857142776;" parent="1" vertex="1">
          <mxGeometry x="577.5" y="400" width="85" height="40" as="geometry" />
        </mxCell>
        <mxCell id="h26YvSRn9PejJhWZv6wJ-10" style="edgeStyle=orthogonalEdgeStyle;rounded=0;orthogonalLoop=1;jettySize=auto;html=1;entryX=0.75;entryY=1;entryDx=0;entryDy=0;" edge="1" parent="1" source="h26YvSRn9PejJhWZv6wJ-3" target="cvoX3v_F4l1VIROdqlJI-17">
          <mxGeometry relative="1" as="geometry">
            <Array as="points">
              <mxPoint x="443" y="450" />
              <mxPoint x="443" y="450" />
            </Array>
          </mxGeometry>
        </mxCell>
        <mxCell id="h26YvSRn9PejJhWZv6wJ-3" value="users.json" style="shape=cylinder3;whiteSpace=wrap;html=1;boundedLbl=1;backgroundOutline=1;size=7.714285714285694;" vertex="1" parent="1">
          <mxGeometry x="390" y="480" width="70" height="40" as="geometry" />
        </mxCell>
        <mxCell id="h26YvSRn9PejJhWZv6wJ-8" style="edgeStyle=orthogonalEdgeStyle;rounded=0;orthogonalLoop=1;jettySize=auto;html=1;entryX=0.145;entryY=0;entryDx=0;entryDy=2.237142857142851;entryPerimeter=0;" edge="1" parent="1" source="cvoX3v_F4l1VIROdqlJI-17" target="h26YvSRn9PejJhWZv6wJ-3">
          <mxGeometry relative="1" as="geometry">
            <Array as="points">
              <mxPoint x="410" y="450" />
              <mxPoint x="400" y="450" />
            </Array>
          </mxGeometry>
        </mxCell>
        <mxCell id="h26YvSRn9PejJhWZv6wJ-12" style="edgeStyle=orthogonalEdgeStyle;rounded=0;orthogonalLoop=1;jettySize=auto;html=1;entryX=0;entryY=0.25;entryDx=0;entryDy=0;exitX=1;exitY=0.25;exitDx=0;exitDy=0;" edge="1" parent="1" source="cvoX3v_F4l1VIROdqlJI-17" target="cvoX3v_F4l1VIROdqlJI-28">
          <mxGeometry relative="1" as="geometry" />
        </mxCell>
        <mxCell id="h26YvSRn9PejJhWZv6wJ-14" value="HTTP GET" style="edgeLabel;html=1;align=center;verticalAlign=middle;resizable=0;points=[];" vertex="1" connectable="0" parent="h26YvSRn9PejJhWZv6wJ-12">
          <mxGeometry x="0.3437" y="-2" relative="1" as="geometry">
            <mxPoint x="-14" y="-10" as="offset" />
          </mxGeometry>
        </mxCell>
      </root>
    </mxGraphModel>
  </diagram>
</mxfile>
